<?xml version="1.0" encoding="utf-8"?>
<!-- Generator: Adobe Illustrator 24.1.2, SVG Export Plug-In . SVG Version: 6.00 Build 0)  -->
<svg version="1.1" id="Layer_1" xmlns="http://www.w3.org/2000/svg" xmlns:xlink="http://www.w3.org/1999/xlink" x="0px" y="0px"
	 viewBox="0 0 612 792" style="enable-background:new 0 0 612 792;" xml:space="preserve">
<style type="text/css">
	.st0{fill:#666766;}
</style>
<g>
	<path d="M118.7,283v49.4H118h-0.8v-52.7v-0.1v-0.7h1.2l13.6,26.6l13.6-26.6h1.2v0.7v0.1v52.7H146h-0.8V283l-12.7,25.1h-1L118.7,283
		z M118.2,278.9L118.2,278.9H118H118h-0.1h-0.1h-0.1h-0.1H118.2z M145.8,278.9L145.8,278.9h0.1h0.1h0.1h0.1h0.1h0.1H145.8z"/>
	<path d="M180,320.8c0,0.1,0,0.5,0,1.2c0,0.6-0.1,1.4-0.3,2.3c-0.2,0.9-0.5,1.9-0.9,2.9c-0.4,1-1,2-1.9,2.9c-1.9,2-4.5,3-7.9,3
		c-3.3,0-5.9-1-7.7-3c-0.8-0.9-1.5-1.9-1.9-2.9c-0.4-1.1-0.7-2.1-0.8-3c-0.1-1-0.2-1.8-0.2-2.5c0-0.7,0-1.1,0-1.2v-30.1
		c0-2,0.3-3.7,0.8-5.3c0.6-1.5,1.5-2.9,2.7-3.9c1-0.9,2.1-1.6,3.3-2c1.2-0.5,2.5-0.7,3.8-0.7c1.3,0,2.6,0.2,3.9,0.7
		c1.2,0.4,2.4,1.1,3.3,1.9c2.5,2.2,3.7,5.3,3.7,9.3V320.8z M178.4,290.3c0-1.9-0.3-3.5-0.8-4.9c-0.6-1.3-1.3-2.4-2.2-3.2
		c-0.9-0.8-1.9-1.4-3.1-1.8c-1.1-0.4-2.2-0.6-3.3-0.6c-1.1,0-2.3,0.2-3.4,0.6c-1.1,0.4-2.1,1-2.9,1.9c-0.8,0.8-1.5,1.9-2,3.2
		c-0.5,1.3-0.8,2.9-0.8,4.6v30.2c0,1.2,0,2.3,0.1,3.2c0.1,0.9,0.4,1.8,0.7,2.8c0.3,1,0.9,1.9,1.6,2.6c1.5,1.7,3.7,2.5,6.6,2.5
		c2.9,0,5.2-0.9,6.8-2.6c0.7-0.8,1.3-1.6,1.6-2.6c0.3-0.9,0.6-1.8,0.7-2.6c0.1-0.8,0.2-1.8,0.2-2.9L178.4,290.3z"/>
	<path d="M192.9,278.9h11c1.3,0,2.6,0.2,3.8,0.7c1.2,0.5,2.3,1.1,3.2,2c2.4,2.2,3.5,5.3,3.5,9.2v29.6c0,4-1.2,7.1-3.5,9.2
		c-0.9,0.9-2,1.6-3.2,2c-1.2,0.5-2.5,0.7-3.8,0.7h-6h-5.1v-0.7V278.9z M213,290.8c0-1.8-0.3-3.3-0.8-4.6c-0.5-1.3-1.2-2.4-2.1-3.2
		c-0.9-0.8-1.8-1.5-2.9-1.9c-1.1-0.4-2.2-0.6-3.3-0.6h-6h-3.5v50.3h3.5h6c1.1,0,2.2-0.2,3.3-0.6c1.1-0.4,2-1,2.9-1.9
		c0.9-0.9,1.5-1.9,2.1-3.2c0.5-1.3,0.8-2.9,0.8-4.7V290.8z"/>
	<path d="M249.3,330.8v0.8v0.7h-20.7v-0.7v-51.9v-0.8h20.7v0.8v0.7h-19.2v27.6h14.8v0.7v0.8h-14.8v21.2H249.3z"/>
	<path d="M287.4,332.3h-1.6l-10-22.8c-0.1,0-0.3,0.1-0.6,0.1h-10.5v22.7h-0.8h-0.7v-52.5V279h12.1c1.3,0,2.6,0.4,3.8,1.2
		c1.2,0.8,2.4,2,3.3,3.5c0.9,1.5,1.6,3.1,2.2,5c0.5,1.8,0.8,3.7,0.8,5.6c0,1.9-0.2,3.7-0.7,5.5c-0.5,1.8-1.2,3.5-2.2,5
		c-1.5,2.3-3.2,3.7-5.1,4.4L287.4,332.3z M275.3,308c1,0,2.1-0.4,3.1-1.1c1-0.7,2-1.7,2.8-3c0.8-1.3,1.5-2.8,1.9-4.5
		c0.5-1.7,0.7-3.4,0.7-5.1c0-1.8-0.2-3.5-0.7-5.2c-0.5-1.7-1.1-3.2-1.9-4.5c-0.8-1.3-1.8-2.3-2.8-3c-1-0.7-2.1-1.1-3.1-1.1h-10.6
		V308H275.3z"/>
	<path d="M300.6,283.5v48.9h-0.8h-0.8v-52.7v-0.7h1.3l21.2,48.9l0.1-48.9h0.7h0.8v53.4h-1.3L300.6,283.5z M300,278.9L300,278.9h-0.1
		h-0.1h-0.1h-0.1h-0.1h-0.1H300z M322.5,332.4h-0.1h-0.1h-0.1H322H322.5z"/>
	<path class="st0" d="M344.9,280.6h-12.2v-0.8V279h25.7v0.7v0.8h-12v51.8h-0.8h-0.7V280.6z"/>
	<path class="st0" d="M370.5,332.4v-53.4h0.8h0.8v53.4h-0.8H370.5z"/>
	<path class="st0" d="M388.2,283v49.4h-0.7h-0.8v-52.7v-0.1v-0.7h1.2l13.6,26.6l13.6-26.6h1.2v0.7v0.1v52.7h-0.8h-0.8V283L402,308.1
		h-1L388.2,283z M387.6,278.9L387.6,278.9h-0.1h-0.1h-0.1h-0.1h-0.1h-0.1H387.6z M415.3,278.9L415.3,278.9h0.1h0.1h0.1h0.1h0.1h0.1
		H415.3z"/>
	<path class="st0" d="M450.5,330.8v0.8v0.7h-20.7v-0.7v-51.9v-0.8h20.7v0.8v0.7h-19.2v27.6h14.8v0.7v0.8h-14.8v21.2H450.5z"/>
	<path class="st0" d="M483.9,280.6h-16.8v-0.8v-0.8h18.7v1.1l-20,50.7h20v0.8v0.8h-21.9v-1.3L483.9,280.6z"/>
</g>
<g>
	<path d="M143.8,266.3H121V262c0-6.3,5.1-11.4,11.4-11.4l0,0c6.3,0,11.4,5.1,11.4,11.4V266.3z"/>
	<g>
		<rect x="117.5" y="266" width="29.8" height="3"/>
		<path d="M119.6,266.8c0,1.2-1,2.1-2.1,2.1c-1.2,0-2.1-1-2.1-2.1s1-2.1,2.1-2.1C118.7,264.7,119.6,265.6,119.6,266.8z"/>
		<path d="M149.4,266.8c0,1.2-1,2.1-2.1,2.1c-1.2,0-2.1-1-2.1-2.1s1-2.1,2.1-2.1C148.5,264.7,149.4,265.6,149.4,266.8z"/>
	</g>
</g>
<path d="M130.4,277.7l-2.2,4.8h8.4l-2.7-4.8C133.9,277.7,132.6,279.3,130.4,277.7z"/>
</svg>
